<?xml version="1.0" standalone="no"?>
<!DOCTYPE svg PUBLIC "-//W3C//DTD SVG 20010904//EN"
 "http://www.w3.org/TR/2001/REC-SVG-20010904/DTD/svg10.dtd">
<svg version="1.0" xmlns="http://www.w3.org/2000/svg"
 width="400.000000pt" height="400.000000pt" viewBox="0 0 400.000000 400.000000"
 preserveAspectRatio="xMidYMid meet">
<metadata>
Created by potrace 1.11, written by Peter Selinger 2001-2013
</metadata>
<g transform="translate(0.000000,400.000000) scale(0.100000,-0.100000)"
fill="#000000" stroke="none">
<path d="M1985 3358 c-88 -89 -159 -165 -157 -170 1 -4 -2 -7 -6 -6 -5 2 -82
-70 -172 -159 -89 -90 -170 -163 -179 -163 -9 1 -33 7 -53 14 -27 10 -38 10
-38 2 0 -6 -4 -5 -9 3 -5 8 -25 15 -44 15 -19 1 -33 4 -30 9 3 6 -19 9 -43 6
-4 0 -10 5 -14 11 -5 9 -44 -23 -116 -96 -60 -60 -107 -112 -106 -116 1 -5 -2
-8 -8 -8 -13 0 -110 -97 -110 -110 0 -5 -3 -9 -7 -8 -5 2 -100 -90 -213 -202
-210 -211 -214 -216 -187 -265 6 -11 12 -31 13 -45 2 -14 5 -34 8 -45 3 -11
13 -51 23 -90 9 -38 22 -73 27 -77 6 -4 8 -8 4 -8 -3 0 3 -33 13 -72 11 -40
22 -82 24 -93 10 -52 52 -195 56 -191 2 2 4 -5 5 -17 0 -12 4 -33 7 -47 34
-133 51 -189 56 -185 4 2 5 -9 3 -26 -3 -17 0 -29 7 -29 6 0 10 -3 10 -7 -6
-37 11 -48 96 -59 6 0 17 -3 25 -7 48 -18 83 -26 91 -21 5 3 9 1 9 -5 0 -5 8
-8 18 -7 9 2 19 0 22 -4 3 -5 19 -10 35 -13 32 -6 118 -29 198 -52 26 -8 47
-11 47 -8 0 3 6 1 13 -4 6 -6 37 -16 67 -23 30 -7 63 -17 74 -22 14 -8 17 -7
10 4 -6 10 -5 11 7 2 22 -16 98 -36 111 -28 7 5 8 3 3 -6 -6 -10 0 -12 23 -8
17 2 29 1 26 -4 -5 -7 0 -9 21 -8 3 0 19 -7 35 -15 27 -14 35 -26 31 -48 -2
-10 13 -9 25 3 7 7 11 6 11 -4 0 -8 -5 -14 -10 -13 -5 1 -12 -4 -15 -12 -3
-10 0 -12 13 -7 15 5 16 4 6 -8 -7 -8 -10 -24 -6 -36 6 -19 16 -23 58 -23 9 0
17 -4 17 -9 0 -6 11 -8 25 -6 13 3 22 1 19 -3 -5 -8 6 -11 54 -13 9 -1 20 -4
23 -8 7 -11 141 -45 162 -42 9 1 17 -2 17 -8 0 -6 9 -8 20 -5 11 3 20 1 20 -3
0 -7 43 -20 80 -25 3 0 11 -4 19 -9 8 -5 16 -4 21 4 5 8 9 7 13 -4 4 -9 10
-15 14 -14 4 1 18 -2 31 -6 17 -6 30 -3 45 10 12 10 16 12 10 4 -18 -19 -16
-33 2 -26 8 3 15 1 15 -3 0 -5 13 -8 29 -7 17 1 28 -1 26 -4 -2 -4 20 -14 50
-22 39 -11 57 -12 66 -4 9 8 10 8 5 -1 -4 -7 -2 -14 3 -14 16 -2 23 -4 49 -13
12 -4 32 -9 45 -10 12 -2 29 -6 37 -9 48 -17 60 -15 89 18 16 19 33 31 37 27
4 -4 4 1 1 10 -4 11 -2 17 6 15 7 -1 11 4 9 11 -1 6 4 11 10 10 7 -2 12 3 10
10 -1 6 2 11 6 10 5 -2 30 16 55 40 26 23 44 42 41 42 -2 0 11 14 31 31 19 17
32 36 28 42 -3 6 -1 7 6 3 6 -4 14 0 17 8 3 9 11 13 17 9 6 -4 8 0 4 9 -4 11
2 18 19 22 14 4 22 11 19 16 -4 6 -10 8 -14 6 -4 -3 -8 1 -8 9 0 12 3 12 15 3
12 -10 21 -5 48 25 19 20 34 35 34 33 0 -2 24 20 53 48 28 28 51 53 50 54 -1
2 14 17 33 34 19 16 31 35 27 41 -3 6 -1 7 6 3 6 -4 14 0 17 8 3 9 10 14 14
11 8 -5 25 24 22 38 -1 4 2 6 6 5 12 -4 102 79 94 86 -3 3 -6 16 -7 28 -1 13
-5 30 -8 38 -3 8 -7 24 -9 35 -2 14 -11 20 -26 19 -21 -1 -22 9 -1 12 5 1 11
2 13 3 3 0 0 16 -5 34 -6 17 -13 46 -16 62 -3 17 -9 38 -14 48 -6 9 -7 23 -3
29 5 7 2 9 -8 6 -8 -4 -15 0 -15 8 0 7 4 11 9 8 4 -3 8 0 8 5 0 6 -4 11 -10
11 -5 0 -6 8 -3 17 5 12 2 15 -9 11 -8 -4 -15 -1 -15 8 0 7 4 11 9 8 4 -3 8 2
8 10 0 9 -4 16 -9 16 -5 0 -7 8 -4 19 2 10 -3 25 -12 35 -12 12 -13 16 -3 16
10 0 10 2 -1 9 -7 5 -11 13 -8 17 2 5 0 20 -6 34 -5 14 -11 34 -13 45 -2 11
-6 29 -8 40 -2 11 -4 26 -5 33 0 7 -5 10 -11 7 -6 -3 -7 1 -4 10 8 20 -15 77
-29 68 -6 -4 -7 -1 -1 8 12 20 14 39 3 39 -20 0 11 44 79 114 39 41 72 80 72
88 -1 32 -47 168 -55 161 -4 -4 -5 -2 0 6 9 16 -25 161 -38 161 -4 0 -6 3 -3
8 2 4 -2 32 -11 62 -8 30 -15 61 -16 68 0 6 -4 12 -9 12 -5 0 -7 4 -4 8 3 4
-9 57 -25 118 -17 60 -44 159 -60 219 -16 61 -31 115 -33 120 -1 6 -6 24 -10
42 -7 31 -17 37 -86 50 -14 2 -44 10 -67 18 -23 8 -52 17 -65 19 -28 6 -47 11
-123 32 -33 9 -67 18 -75 20 -8 2 -73 19 -145 39 -71 20 -138 38 -148 40 -9 2
-45 11 -80 21 -34 9 -69 17 -77 19 -8 1 -22 5 -30 8 -15 6 -135 37 -141 37 -2
0 -76 -73 -164 -162z m299 44 c3 -5 -1 -9 -9 -9 -8 0 -12 4 -9 9 3 4 7 8 9 8
2 0 6 -4 9 -8z m166 -76 c0 -3 -4 -8 -10 -11 -5 -3 -10 -1 -10 4 0 6 5 11 10
11 6 0 10 -2 10 -4z m-480 -86 c0 -5 -5 -10 -11 -10 -5 0 -7 5 -4 10 3 6 8 10
11 10 2 0 4 -4 4 -10z m954 -78 c3 -5 -1 -9 -9 -9 -8 0 -12 4 -9 9 3 4 7 8 9
8 2 0 6 -4 9 -8z m-304 -78 c0 -8 -19 -13 -24 -6 -3 5 1 9 9 9 8 0 15 -2 15
-3z m-890 -78 c0 -3 -4 -8 -10 -11 -5 -3 -10 -1 -10 4 0 6 5 11 10 11 6 0 10
-2 10 -4z m395 -6 c3 -5 1 -10 -4 -10 -6 0 -11 5 -11 10 0 6 2 10 4 10 3 0 8
-4 11 -10z m400 0 c3 -5 1 -10 -4 -10 -6 0 -11 5 -11 10 0 6 2 10 4 10 3 0 8
-4 11 -10z m645 -160 c0 -5 -2 -10 -4 -10 -3 0 -8 5 -11 10 -3 6 -1 10 4 10 6
0 11 -4 11 -10z m-485 -80 c3 -5 1 -10 -4 -10 -6 0 -11 5 -11 10 0 6 2 10 4
10 3 0 8 -4 11 -10z m-161 -158 c3 -5 -1 -9 -9 -9 -8 0 -12 4 -9 9 3 4 7 8 9
8 2 0 6 -4 9 -8z m86 -2 c0 -5 -2 -10 -4 -10 -3 0 -8 5 -11 10 -3 6 -1 10 4
10 6 0 11 -4 11 -10z m-1320 -40 c0 -5 -5 -10 -11 -10 -5 0 -7 5 -4 10 3 6 8
10 11 10 2 0 4 -4 4 -10z m1995 -8 c-3 -3 -11 0 -18 7 -9 10 -8 11 6 5 10 -3
15 -9 12 -12z m-118 -107 c0 -8 -4 -12 -9 -9 -5 3 -6 10 -3 15 9 13 12 11 12
-6z m-1799 -50 c-3 -3 -9 2 -12 12 -6 14 -5 15 5 6 7 -7 10 -15 7 -18z m-238
-71 c0 -8 -19 -13 -24 -6 -3 5 1 9 9 9 8 0 15 -2 15 -3z m-315 -164 c3 -6 -1
-7 -9 -4 -18 7 -21 14 -7 14 6 0 13 -4 16 -10z m392 -75 c0 -8 -4 -12 -9 -9
-5 3 -6 10 -3 15 9 13 12 11 12 -6z m-467 -81 c0 -8 -19 -13 -24 -6 -3 5 1 9
9 9 8 0 15 -2 15 -3z m2515 -24 c-3 -5 -12 -10 -18 -10 -7 0 -6 4 3 10 19 12
23 12 15 0z m-1887 -65 c-3 -3 -9 2 -12 12 -6 14 -5 15 5 6 7 -7 10 -15 7 -18z
m1877 -13 c-3 -3 3 -15 12 -26 18 -21 18 -21 -5 -2 -12 11 -20 21 -17 24 3 3
-3 15 -12 26 -18 21 -18 21 5 2 12 -11 20 -21 17 -24z m-42 10 c15 -16 15 -19
2 -19 -8 0 -13 3 -10 5 3 3 0 11 -6 19 -17 20 -5 16 14 -5z m98 1 c13 -17 13
-17 -6 -3 -11 8 -22 16 -24 17 -2 2 0 3 6 3 6 0 17 -8 24 -17z m-20 -20 c13
-16 12 -17 -3 -4 -17 13 -22 21 -14 21 2 0 10 -8 17 -17z m-121 -8 c0 -2 -6
-8 -13 -14 -10 -8 -14 -7 -14 2 0 8 6 14 14 14 7 0 13 -1 13 -2z m126 -47 c3
-3 -13 -5 -35 -4 -22 1 -43 4 -46 7 -3 3 13 5 35 4 22 -1 43 -4 46 -7z m36 -6
c3 -11 0 -19 -7 -19 -7 0 -10 8 -7 19 2 10 6 18 7 18 1 0 5 -8 7 -18z m-160
-9 c-1 -4 7 -17 16 -28 17 -20 17 -20 -4 -2 -11 9 -21 24 -21 32 0 8 2 13 5
11 2 -2 4 -8 4 -13z m-26 -5 c3 -4 -1 -5 -10 -4 -8 1 -18 5 -22 8 -3 4 1 5 10
4 8 -1 18 -5 22 -8z m111 -43 c0 -8 -4 -12 -9 -9 -5 4 -7 9 -4 12 3 3 -2 15
-11 26 -18 21 -18 21 3 3 11 -9 21 -24 21 -32z m-186 12 c-10 -9 -11 -8 -5 6
3 10 9 15 12 12 3 -3 0 -11 -7 -18z m242 -22 c-3 -9 -8 -14 -10 -11 -3 3 -2 9
2 15 9 16 15 13 8 -4z m-2662 -18 c-10 -9 -11 -8 -5 6 3 10 9 15 12 12 3 -3 0
-11 -7 -18z m2690 -4 c13 -16 12 -17 -3 -4 -10 7 -18 15 -18 17 0 8 8 3 21
-13z m-246 -1 c-3 -3 0 -11 6 -19 17 -20 5 -16 -14 5 -15 16 -15 19 -2 19 8 0
13 -3 10 -5z m45 -6 c-7 -7 -13 -7 -20 0 -6 6 -3 10 10 10 13 0 16 -4 10 -10z
m50 9 c0 -1 -10 -10 -22 -21 -14 -12 -18 -13 -10 -3 6 9 10 18 7 21 -3 2 2 5
10 5 8 0 15 -1 15 -2z m136 -27 c12 -14 13 -18 3 -10 -9 6 -18 10 -21 7 -2 -3
-5 2 -5 10 0 19 0 19 23 -7z m-255 -5 c13 -16 12 -17 -3 -4 -17 13 -22 21 -14
21 2 0 10 -8 17 -17z m148 14 c-2 -1 -13 -9 -24 -17 -19 -14 -19 -14 -6 3 7 9
18 17 24 17 6 0 8 -1 6 -3z m-203 -22 c-1 -8 -5 -17 -8 -21 -5 -4 -4 16 1 34
3 9 9 -1 7 -13z m205 -8 c-6 -8 -9 -16 -6 -19 3 -3 -3 -11 -12 -19 -16 -13
-17 -12 -4 4 7 9 10 17 6 17 -4 0 -2 7 5 15 7 8 15 15 17 15 3 0 0 -6 -6 -13z
m159 -18 c0 -5 -5 -9 -12 -9 -6 0 -8 3 -5 7 4 3 1 13 -6 22 -11 14 -10 14 6 2
9 -7 17 -17 17 -22z m-267 1 c3 -11 1 -18 -4 -14 -5 3 -9 12 -9 20 0 20 7 17
13 -6z m43 5 c-1 -8 -5 -17 -8 -21 -5 -4 -4 16 1 34 3 9 9 -1 7 -13z m120 0
c-1 -8 -5 -17 -8 -21 -5 -4 -4 16 1 34 3 9 9 -1 7 -13z m42 -10 c-3 -3 -9 2
-12 12 -6 14 -5 15 5 6 7 -7 10 -15 7 -18z m-2498 9 c0 -8 -19 -13 -24 -6 -3
5 1 9 9 9 8 0 15 -2 15 -3z m2155 -38 c0 -19 -3 -37 -6 -40 -4 -5 -4 62 0 72
4 10 7 -4 6 -32z m-30 14 c-3 -5 -12 -10 -18 -10 -7 0 -6 4 3 10 19 12 23 12
15 0z m167 -15 c2 3 5 -2 5 -10 0 -19 0 -19 -23 7 -12 14 -13 18 -3 10 9 -6
18 -10 21 -7z m68 11 c0 -2 -6 -9 -14 -15 -11 -9 -16 -9 -22 0 -4 7 -3 9 4 5
6 -3 13 -2 17 4 6 10 15 14 15 6z m50 -11 c-7 -8 -17 -15 -23 -15 -6 0 -2 7 9
15 25 19 30 19 14 0z m85 5 c-3 -5 -14 -10 -23 -9 -14 0 -13 2 3 9 27 11 27
11 20 0z m46 -7 c13 -16 12 -17 -3 -4 -17 13 -22 21 -14 21 2 0 10 -8 17 -17z
m-305 -5 c3 -4 -2 -5 -13 -3 -10 1 -27 -5 -38 -14 -20 -16 -20 -16 -2 6 17 20
39 24 53 11z m205 -1 c-6 -8 -9 -16 -6 -19 3 -2 -2 -5 -10 -5 -13 0 -13 3 2
19 19 21 31 25 14 5z m78 -10 c8 -10 7 -14 -2 -14 -8 0 -14 6 -14 14 0 7 1 13
2 13 2 0 8 -6 14 -13z m-35 -5 c2 -4 -4 -8 -14 -8 -10 0 -16 4 -14 8 3 4 9 8
14 8 5 0 11 -4 14 -8z m81 -2 c-3 -5 -12 -10 -18 -10 -7 0 -6 4 3 10 19 12 23
12 15 0z m-2327 -25 c-3 -3 -9 2 -12 12 -6 14 -5 15 5 6 7 -7 10 -15 7 -18z
m1877 -13 c-3 -3 3 -15 12 -26 18 -21 18 -21 -5 -2 -12 11 -20 21 -17 24 3 3
-3 15 -12 26 -18 21 -18 21 5 2 12 -11 20 -21 17 -24z m135 23 c-7 -8 -17 -15
-23 -15 -6 0 -2 7 9 15 25 19 30 19 14 0z m102 -22 c-1 -4 7 -17 16 -28 17
-20 17 -20 -4 -2 -11 9 -21 24 -21 32 0 8 2 13 5 11 2 -2 4 -8 4 -13z m-201
-10 c13 -16 12 -17 -3 -4 -10 7 -18 15 -18 17 0 8 8 3 21 -13z m249 3 c-7 -7
-13 -7 -20 0 -6 6 -3 10 10 10 13 0 16 -4 10 -10z m50 9 c0 -1 -10 -10 -22
-21 -14 -12 -18 -13 -10 -3 6 9 10 18 7 21 -3 2 2 5 10 5 8 0 15 -1 15 -2z
m-406 -26 c-10 -12 -18 -24 -17 -28 1 -3 0 -8 -2 -9 -2 -2 -3 3 -1 11 2 16 25
47 34 47 3 0 -3 -9 -14 -21z m173 6 c0 -8 -3 -13 -5 -10 -3 3 -12 -1 -21 -7
-10 -8 -9 -4 3 10 23 26 23 26 23 7z m298 -23 c-3 -3 3 -15 12 -26 18 -21 18
-21 -5 -2 -12 11 -20 21 -17 24 3 3 -3 15 -12 26 -18 21 -18 21 5 2 12 -11 20
-21 17 -24z m-249 0 c-17 -16 -18 -16 -5 5 7 12 15 20 18 17 3 -2 -3 -12 -13
-22z m204 24 c0 -2 -8 -10 -17 -17 -16 -13 -17 -12 -4 4 13 16 21 21 21 13z
m120 0 c0 -2 -8 -10 -17 -17 -16 -13 -17 -12 -4 4 13 16 21 21 21 13z m-373
-41 c0 -8 -3 -13 -5 -10 -3 3 -15 -3 -26 -12 -15 -14 -18 -14 -8 -2 6 9 8 20
4 24 -4 5 -2 5 5 1 6 -3 14 -2 18 4 9 14 12 13 12 -5z m79 0 c-1 -8 -5 -17 -8
-21 -5 -4 -4 16 1 34 3 9 9 -1 7 -13z m124 11 c0 -2 -8 -10 -17 -17 -16 -13
-17 -12 -4 4 13 16 21 21 21 13z m46 -13 c-2 -3 -6 -3 -9 -1 -3 2 -15 -6 -28
-17 l-24 -20 18 21 c9 11 24 21 32 21 8 0 13 -2 11 -4z m148 -4 c3 -2 -10 -5
-29 -5 -18 0 -32 3 -30 7 5 7 52 6 59 -2z m-618 -14 c-1 -8 -5 -17 -8 -21 -5
-4 -4 16 1 34 3 9 9 -1 7 -13z m-31 -5 c-3 -5 -12 -10 -18 -10 -7 0 -6 4 3 10
19 12 23 12 15 0z m150 2 c-3 -3 0 -11 6 -19 17 -20 5 -16 -14 5 -15 16 -15
19 -2 19 8 0 13 -3 10 -5z m40 -10 c-3 -3 -11 0 -18 7 -9 10 -8 11 6 5 10 -3
15 -9 12 -12z m200 10 c-3 -3 0 -11 6 -19 17 -20 5 -16 -14 5 -15 16 -15 19
-2 19 8 0 13 -3 10 -5z m40 -10 c-3 -3 -11 0 -18 7 -9 10 -8 11 6 5 10 -3 15
-9 12 -12z m124 -16 c-3 -3 -11 5 -18 17 -13 21 -12 21 5 5 10 -10 16 -20 13
-22z m-859 20 c0 -2 -8 -10 -17 -17 -16 -13 -17 -12 -4 4 13 16 21 21 21 13z
m50 -11 c-7 -9 -15 -13 -18 -10 -3 3 -15 -3 -26 -12 -21 -18 -21 -18 -2 4 10
13 22 20 27 18 4 -3 10 -1 14 5 3 5 9 10 12 10 3 0 0 -7 -7 -15z m507 0 c0 -8
-3 -13 -5 -10 -3 3 -12 -1 -21 -7 -10 -8 -9 -4 3 10 23 26 23 26 23 7z m240
-7 c0 -13 -1 -17 -4 -10 -3 6 -10 9 -16 5 -7 -4 -6 1 2 10 17 21 17 21 18 -5z
m147 1 c-10 -12 -18 -24 -17 -28 1 -3 0 -8 -2 -9 -2 -2 -3 3 -1 11 2 16 25 47
34 47 3 0 -3 -9 -14 -21z m-993 -6 c13 -16 12 -17 -3 -4 -10 7 -18 15 -18 17
0 8 8 3 21 -13z m154 7 c3 -6 -1 -7 -9 -4 -18 7 -21 14 -7 14 6 0 13 -4 16
-10z m266 -7 c12 -16 12 -17 -2 -6 -9 7 -20 9 -24 5 -5 -4 -5 -1 -1 6 9 16 11
15 27 -5z m60 0 c13 -17 13 -17 -6 -3 -11 8 -22 16 -24 17 -2 2 0 3 6 3 6 0
17 -8 24 -17z m240 0 c13 -17 13 -17 -6 -3 -11 8 -22 16 -24 17 -2 2 0 3 6 3
6 0 17 -8 24 -17z m-740 -20 c13 -16 12 -17 -3 -4 -17 13 -22 21 -14 21 2 0
10 -8 17 -17z m208 0 c-7 -10 -14 -19 -15 -21 -1 -1 -7 4 -14 13 -11 13 -10
14 3 10 8 -4 18 -2 22 4 3 6 9 11 12 11 3 0 -1 -8 -8 -17z m272 0 c13 -16 12
-17 -3 -4 -17 13 -22 21 -14 21 2 0 10 -8 17 -17z m94 7 c-4 -6 -1 -19 7 -28
11 -15 11 -15 -3 -5 -9 7 -18 11 -21 8 -3 -3 -11 3 -19 12 -13 16 -12 17 2 5
14 -10 18 -10 23 3 3 8 8 15 11 15 4 0 3 -5 0 -10z m115 6 c0 -2 -7 -7 -16
-10 -8 -3 -12 -2 -9 4 6 10 25 14 25 6z m31 -13 c13 -16 12 -17 -3 -4 -17 13
-22 21 -14 21 2 0 10 -8 17 -17z m120 0 c13 -16 12 -17 -3 -4 -17 13 -22 21
-14 21 2 0 10 -8 17 -17z m-738 -8 c-3 -9 -8 -14 -10 -11 -3 3 -2 9 2 15 9 16
15 13 8 -4z m248 -2 c13 -16 12 -17 -3 -4 -17 13 -22 21 -14 21 2 0 10 -8 17
-17z m272 2 c-3 -9 -8 -14 -10 -11 -3 3 -2 9 2 15 9 16 15 13 8 -4z m324 -7
c0 -13 -1 -17 -4 -10 -4 10 -10 9 -27 -5 -17 -14 -16 -12 3 10 14 15 25 27 26
27 0 0 1 -10 2 -22z m-779 -9 c9 -12 9 -16 -1 -16 -7 0 -14 9 -14 20 -1 11 -1
18 0 16 2 -2 8 -11 15 -20z m133 4 c13 -16 12 -17 -3 -4 -17 13 -22 21 -14 21
2 0 10 -8 17 -17z m105 5 c4 -7 4 -10 -1 -6 -4 4 -15 2 -24 -5 -14 -11 -14
-10 -2 6 16 20 18 21 27 5z m30 -16 c-17 -16 -18 -16 -5 5 7 12 15 20 18 17 3
-2 -3 -12 -13 -22z m65 5 c-10 -9 -11 -8 -5 6 3 10 9 15 12 12 3 -3 0 -11 -7
-18z m203 7 c3 -8 2 -12 -4 -9 -6 3 -10 10 -10 16 0 14 7 11 14 -7z m92 -12
c-17 -16 -18 -16 -5 5 7 12 15 20 18 17 3 -2 -3 -12 -13 -22z m65 5 c-10 -9
-11 -8 -5 6 3 10 9 15 12 12 3 -3 0 -11 -7 -18z m-730 -4 c13 -16 12 -17 -3
-4 -17 13 -22 21 -14 21 2 0 10 -8 17 -17z m520 0 c13 -16 12 -17 -3 -4 -17
13 -22 21 -14 21 2 0 10 -8 17 -17z m-334 -18 c12 1 20 -2 17 -6 -8 -14 -45
-5 -62 16 -17 19 -16 20 3 4 11 -9 30 -15 42 -14z m448 7 c-3 -3 -11 0 -18 7
-9 10 -8 11 6 5 10 -3 15 -9 12 -12z m257 -6 c3 3 8 1 12 -4 11 -18 -25 -8
-41 12 -18 21 -18 21 3 3 11 -9 23 -14 26 -11z m-1052 11 c0 -2 -10 -12 -22
-23 l-23 -19 19 23 c18 21 26 27 26 19z m139 -10 c8 -10 7 -14 -2 -14 -8 0
-14 6 -14 14 0 7 1 13 2 13 2 0 8 -6 14 -13z m113 -2 c2 3 5 -2 5 -10 0 -19 0
-19 -23 7 -12 14 -13 18 -3 10 9 -6 18 -10 21 -7z m245 2 c0 -8 -6 -14 -14
-14 -9 0 -10 4 -2 14 6 7 12 13 14 13 1 0 2 -6 2 -13z m72 10 c-2 -1 -13 -10
-25 -20 -17 -14 -21 -14 -21 -2 0 8 4 12 8 9 4 -2 10 0 14 6 3 5 11 10 17 10
6 0 9 -1 7 -3z m105 -26 c-2 -3 -12 3 -22 13 -16 17 -16 18 5 5 12 -7 20 -15
17 -18z m176 14 c-7 -8 -17 -15 -23 -15 -6 0 -2 7 9 15 25 19 30 19 14 0z
m-773 -19 c18 -21 18 -21 -3 -3 -11 9 -23 14 -26 11 -3 -3 -8 -1 -12 4 -11 18
25 8 41 -12z m324 11 c-6 -8 -9 -16 -6 -19 3 -2 -2 -5 -10 -5 -13 0 -13 3 2
19 19 21 31 25 14 5z m232 -5 c15 -16 15 -19 2 -19 -8 0 -13 3 -10 5 3 3 0 11
-6 19 -17 20 -5 16 14 -5z m248 5 c-6 -8 -9 -16 -6 -19 3 -2 -2 -5 -10 -5 -13
0 -13 3 2 19 19 21 31 25 14 5z m96 -4 c0 -9 -4 -10 -14 -2 -7 6 -13 12 -13
14 0 1 6 2 13 2 8 0 14 -6 14 -14z m-807 -6 c0 -2 -8 -12 -19 -21 -16 -15 -19
-15 -24 -2 -4 10 -1 13 7 10 8 -3 17 -1 21 5 6 11 15 15 15 8z m67 -38 c-1
-11 -10 -28 -21 -37 -20 -16 -20 -16 -6 2 19 24 21 47 7 66 -10 13 -10 13 5 2
9 -7 16 -22 15 -33z m203 37 c0 -2 -7 -7 -16 -10 -8 -3 -12 -2 -9 4 6 10 25
14 25 6z m28 -27 c-3 -8 -7 -3 -11 10 -4 17 -3 21 5 13 5 -5 8 -16 6 -23z m93
18 c-6 -8 -9 -17 -6 -20 3 -4 2 -5 -2 -2 -3 3 -11 0 -18 -5 -8 -7 -12 -5 -12
5 0 8 4 12 8 10 3 -3 12 2 19 10 7 8 15 15 17 15 3 0 0 -6 -6 -13z m44 3 c3
-6 -1 -7 -9 -4 -18 7 -21 14 -7 14 6 0 13 -4 16 -10z m315 6 c0 -2 -7 -7 -16
-10 -8 -3 -12 -2 -9 4 6 10 25 14 25 6z m52 -21 c2 3 5 -2 5 -10 0 -10 -4 -12
-12 -5 -7 5 -16 6 -21 2 -5 -4 -6 -3 -2 2 4 5 2 16 -4 25 -10 12 -7 12 8 -2
11 -9 23 -15 26 -12z m-911 -2 c13 -16 12 -17 -3 -4 -10 7 -18 15 -18 17 0 8
8 3 21 -13z m435 -3 c0 -12 -4 -16 -9 -11 -5 5 -6 14 -3 20 10 15 12 14 12 -9z
m560 -6 c1 -9 0 -13 -4 -10 -3 4 -7 14 -8 22 -1 9 0 13 4 10 3 -4 7 -14 8 -22z
m-1119 -1 c0 -9 -4 -10 -14 -2 -7 6 -13 12 -13 14 0 1 6 2 13 2 8 0 14 -6 14
-14z m253 13 c0 -2 -8 -10 -17 -17 -16 -13 -17 -12 -4 4 13 16 21 21 21 13z
m527 -21 c0 -8 -10 -23 -21 -32 -21 -18 -21 -18 -2 5 11 12 16 22 12 22 -4 0
-4 5 -1 10 9 14 12 13 12 -5z m75 -2 c-1 -4 7 -17 16 -28 17 -20 17 -20 -4 -2
-11 9 -21 24 -21 32 0 8 2 13 5 11 2 -2 4 -8 4 -13z m-782 2 c0 -1 -10 -10
-22 -21 -14 -12 -18 -13 -10 -3 6 9 10 18 7 21 -3 2 2 5 10 5 8 0 15 -1 15 -2z
m35 -5 c3 -6 -1 -7 -9 -4 -18 7 -21 14 -7 14 6 0 13 -4 16 -10z m165 6 c0 -2
-8 -10 -17 -17 -16 -13 -17 -12 -4 4 13 16 21 21 21 13z m75 -5 c-9 -8 -36
-10 -30 -2 2 4 11 8 20 8 8 0 13 -3 10 -6z m161 -3 c3 -4 -1 -5 -10 -4 -8 1
-18 5 -22 8 -3 4 1 5 10 4 8 -1 18 -5 22 -8z m593 -22 c-3 -3 -11 5 -18 17
-13 21 -12 21 5 5 10 -10 16 -20 13 -22z m-1127 9 c2 3 5 -2 5 -10 0 -10 -4
-12 -12 -5 -7 5 -14 8 -17 5 -2 -3 -5 2 -5 10 0 10 4 12 12 5 7 -5 14 -8 17
-5z m215 -3 c-10 -10 -16 -21 -15 -23 2 -2 1 -3 -1 -1 -3 1 -6 9 -7 17 -1 8 2
13 6 10 5 -3 11 -1 15 5 3 5 9 10 12 10 3 0 -1 -8 -10 -18z m365 3 c2 3 5 -2
5 -10 0 -19 0 -19 -23 7 -12 14 -13 18 -3 10 9 -6 18 -10 21 -7z m68 12 c0 -2
-8 -11 -18 -20 -15 -14 -19 -15 -19 -2 0 8 4 12 8 9 4 -2 10 0 14 6 6 10 15
14 15 7z m77 -42 c0 -8 -4 -12 -9 -9 -5 4 -7 9 -4 12 3 3 -2 15 -11 26 -18 21
-18 21 3 3 11 -9 21 -24 21 -32z m250 27 c-10 -10 -15 -21 -12 -24 3 -3 -5
-13 -17 -24 l-23 -19 19 23 c11 12 15 22 11 22 -4 0 0 9 10 20 10 11 20 20 23
20 3 0 -2 -8 -11 -18z m85 3 c2 3 5 -2 5 -10 0 -19 0 -19 -23 7 -12 14 -13 18
-3 10 9 -6 18 -10 21 -7z m-942 1 c0 -2 -8 -10 -17 -17 -16 -13 -17 -12 -4 4
13 16 21 21 21 13z m131 -9 c-6 -8 -9 -16 -6 -19 3 -2 -2 -5 -10 -5 -13 0 -13
3 2 19 19 21 31 25 14 5z m158 10 c-2 -1 -13 -9 -24 -17 -19 -14 -19 -14 -6 3
7 9 18 17 24 17 6 0 8 -1 6 -3z m282 -24 c13 -16 12 -17 -3 -4 -17 13 -22 21
-14 21 2 0 10 -8 17 -17z m-629 -7 c10 6 11 4 0 -7 -10 -11 -15 -10 -30 6 -15
17 -15 18 0 6 9 -7 23 -9 30 -5z m499 -3 c13 -16 12 -17 -3 -4 -17 13 -22 21
-14 21 2 0 10 -8 17 -17z m449 13 c0 -2 -7 -7 -16 -10 -8 -3 -12 -2 -9 4 6 10
25 14 25 6z m39 -30 c-3 -3 -11 5 -18 17 -13 21 -12 21 5 5 10 -10 16 -20 13
-22z m157 8 c1 -9 0 -13 -3 -10 -4 3 -13 0 -22 -6 -12 -10 -12 -7 2 8 9 11 15
24 12 27 -3 4 -2 5 2 2 4 -3 8 -13 9 -21z m-542 -14 c-6 -6 -10 -3 -10 10 0
13 4 16 10 10 7 -7 7 -13 0 -20z m482 10 c0 -12 -4 -16 -9 -11 -5 5 -6 14 -3
20 10 15 12 14 12 -9z m-1125 -7 c13 -16 12 -17 -3 -4 -10 7 -18 15 -18 17 0
8 8 3 21 -13z m108 14 c-2 -2 -11 -8 -20 -15 -12 -9 -16 -9 -16 1 0 7 9 14 20
14 11 1 18 1 16 0z m226 -8 c-3 -3 -17 -5 -32 -4 -15 1 -35 -3 -43 -9 -13 -9
-13 -8 -3 4 11 15 86 23 78 9z m131 -14 c1 -7 -8 -22 -19 -32 -22 -18 -22 -18
-6 2 9 11 15 28 14 38 -2 11 -1 16 3 13 3 -4 7 -13 8 -21z m124 11 c-7 -7 -13
-7 -20 0 -6 6 -3 10 10 10 13 0 16 -4 10 -10z m304 3 c3 -2 -15 -5 -40 -5 -24
0 -44 3 -44 7 0 7 77 6 84 -2z m111 2 c3 -5 2 -12 -3 -15 -5 -3 -9 1 -9 9 0
17 3 19 12 6z m58 -9 c15 -16 15 -19 2 -19 -8 0 -13 3 -10 5 3 3 0 11 -6 19
-17 20 -5 16 14 -5z m-1143 -5 c0 -2 -10 -12 -22 -23 l-23 -19 19 23 c18 21
26 27 26 19z m82 -21 c3 3 8 1 12 -4 11 -18 -25 -8 -41 12 -18 21 -18 21 3 3
11 -9 23 -14 26 -11z m151 7 c-4 -10 -9 -11 -19 -2 -18 15 -18 15 5 15 11 0
17 -5 14 -13z m37 2 c-5 -7 -9 -14 -7 -16 1 -2 0 -3 -2 -2 -2 2 -11 -3 -20 -9
-12 -10 -12 -7 2 8 9 11 15 23 12 26 -3 2 2 5 10 5 10 0 12 -4 5 -12z m50 10
c0 -1 -10 -10 -22 -21 -14 -12 -18 -13 -10 -3 6 9 10 18 7 21 -3 2 2 5 10 5 8
0 15 -1 15 -2z m145 -3 c-3 -3 0 -11 6 -19 17 -20 5 -16 -14 5 -15 16 -15 19
-2 19 8 0 13 -3 10 -5z m45 -6 c-7 -7 -13 -7 -20 0 -6 6 -3 10 10 10 13 0 16
-4 10 -10z m235 -6 c-10 -11 -20 -18 -23 -15 -3 3 -15 -3 -26 -12 -21 -18 -21
-18 -2 4 10 13 22 20 26 18 4 -3 13 2 20 10 7 8 15 15 18 15 3 0 -3 -9 -13
-20z m283 0 c-7 -10 -14 -17 -17 -15 -4 4 18 35 25 35 2 0 -1 -9 -8 -20z
m-631 -8 c-10 -10 -15 -21 -12 -24 3 -3 -5 -13 -17 -24 l-23 -19 19 23 c11 12
15 22 11 22 -4 0 0 9 10 20 10 11 20 20 23 20 3 0 -2 -8 -11 -18z m451 -7 c-3
-3 -9 2 -12 12 -6 14 -5 15 5 6 7 -7 10 -15 7 -18z m99 -20 c0 -8 -4 -12 -9
-9 -5 4 -7 9 -4 12 3 3 -2 15 -11 26 -18 21 -18 21 3 3 11 -9 21 -24 21 -32z
m172 42 c-2 -1 -13 -10 -25 -20 -17 -14 -21 -14 -21 -2 0 8 4 12 8 9 4 -2 10
0 14 6 3 5 11 10 17 10 6 0 9 -1 7 -3z m83 -12 c2 3 5 -2 5 -10 0 -19 0 -19
-23 7 -12 14 -13 18 -3 10 9 -6 18 -10 21 -7z m65 0 c0 -8 -3 -13 -5 -10 -3 3
-10 0 -17 -5 -8 -7 -12 -5 -12 5 0 8 4 12 8 9 4 -2 10 0 14 6 9 14 12 13 12
-5z m-1116 -8 c-6 -8 -9 -16 -6 -19 3 -2 -2 -5 -10 -5 -13 0 -13 3 2 19 19 21
31 25 14 5z m50 -4 c13 -17 13 -17 -6 -3 -11 8 -22 16 -24 17 -2 2 0 3 6 3 6
0 17 -8 24 -17z m139 13 c0 -2 -8 -10 -17 -17 -16 -13 -17 -12 -4 4 13 16 21
21 21 13z m101 -13 c13 -16 12 -17 -3 -4 -10 7 -18 15 -18 17 0 8 8 3 21 -13z
m186 -7 c18 -21 18 -21 -3 -3 -11 9 -23 14 -26 11 -3 -3 -8 -1 -12 4 -11 18
25 8 41 -12z m162 21 c-2 -1 -13 -9 -24 -17 -19 -14 -19 -14 -6 3 7 9 18 17
24 17 6 0 8 -1 6 -3z m-429 -21 c0 -2 -8 -10 -17 -17 -16 -13 -17 -12 -4 4 13
16 21 21 21 13z m64 -4 c3 -5 -1 -9 -9 -9 -8 0 -12 4 -9 9 3 4 7 8 9 8 2 0 6
-4 9 -8z m492 -4 c3 -4 -1 -5 -10 -4 -8 1 -18 5 -22 8 -3 4 1 5 10 4 8 -1 18
-5 22 -8z m192 -8 c-7 -10 -14 -17 -17 -15 -4 4 18 35 25 35 2 0 -1 -9 -8 -20z
m73 3 c13 -16 12 -17 -3 -4 -10 7 -18 15 -18 17 0 8 8 3 21 -13z m-1095 -19
c1 -9 0 -13 -4 -10 -3 4 -7 14 -8 22 -1 9 0 13 4 10 3 -4 7 -14 8 -22z m405 9
c13 -16 12 -17 -3 -4 -10 7 -18 15 -18 17 0 8 8 3 21 -13z m115 -9 c1 -9 0
-13 -4 -10 -3 4 -7 14 -8 22 -1 9 0 13 4 10 3 -4 7 -14 8 -22z m121 11 c0 -8
-4 -12 -9 -9 -5 3 -6 10 -3 15 9 13 12 11 12 -6z m110 -3 c-10 -10 -15 -21
-12 -24 3 -3 -5 -13 -17 -24 l-23 -19 19 23 c13 14 15 22 6 22 -7 0 -2 9 11
20 30 25 37 25 16 2z m188 -20 c-3 -3 3 -15 12 -26 18 -21 18 -21 -5 -2 -12
11 -20 21 -17 24 3 3 -3 15 -12 26 -18 21 -18 21 5 2 12 -11 20 -21 17 -24z
m-2111 20 c3 -5 -1 -9 -9 -9 -8 0 -12 4 -9 9 3 4 7 8 9 8 2 0 6 -4 9 -8z
m1116 -2 c0 -5 -4 -10 -10 -10 -5 0 -10 5 -10 10 0 6 5 10 10 10 6 0 10 -4 10
-10z m214 -6 c3 -8 2 -12 -4 -9 -6 3 -10 10 -10 16 0 14 7 11 14 -7z m226 -9
c14 -19 14 -19 -2 -6 -10 7 -18 18 -18 24 0 6 1 8 3 6 1 -2 9 -13 17 -24z
m386 -3 c-17 -16 -18 -16 -5 5 7 12 15 20 18 17 3 -2 -3 -12 -13 -22z m305 11
c13 -16 12 -17 -3 -4 -15 11 -21 11 -35 0 -16 -13 -17 -12 -4 4 7 9 17 17 21
17 4 0 14 -8 21 -17z m40 -6 c-10 -9 -11 -8 -5 6 3 10 9 15 12 12 3 -3 0 -11
-7 -18z m54 14 c-9 -8 -36 -10 -30 -2 2 4 11 8 20 8 8 0 13 -3 10 -6z m-544
-18 c13 -16 12 -17 -3 -4 -10 7 -18 15 -18 17 0 8 8 3 21 -13z m-406 -13 c10
-11 16 -20 13 -20 -3 0 -13 9 -23 20 -10 11 -16 20 -13 20 3 0 13 -9 23 -20z
m83 0 c-7 -10 -14 -17 -17 -15 -4 4 18 35 25 35 2 0 -1 -9 -8 -20z m127 10
c-3 -5 -12 -10 -18 -10 -7 0 -6 4 3 10 19 12 23 12 15 0z m45 5 c0 -1 -10 -10
-22 -21 -14 -12 -18 -13 -10 -3 6 9 10 18 7 21 -3 2 2 5 10 5 8 0 15 -1 15 -2z
m187 -2 c-4 -3 1 -16 10 -27 18 -21 18 -21 -4 -2 -20 16 -23 36 -6 36 4 0 3
-3 0 -7z m40 -10 c0 -9 -4 -10 -14 -2 -7 6 -13 12 -13 14 0 1 6 2 13 2 8 0 14
-6 14 -14z m283 11 c0 -8 -19 -13 -24 -6 -3 5 1 9 9 9 8 0 15 -2 15 -3z m-913
-22 c-10 -10 -15 -21 -12 -24 3 -3 -5 -13 -17 -24 l-23 -19 19 23 c11 12 15
22 11 22 -4 0 0 9 10 20 10 11 20 20 23 20 3 0 -2 -8 -11 -18z m85 3 c2 3 5
-2 5 -10 0 -19 0 -19 -23 7 -12 14 -13 18 -3 10 9 -6 18 -10 21 -7z m207 2 c8
-10 7 -14 -2 -14 -8 0 -14 6 -14 14 0 7 1 13 2 13 2 0 8 -6 14 -13z m247 -9
c12 -14 13 -18 3 -10 -9 6 -18 10 -21 7 -2 -3 -5 2 -5 10 0 19 0 19 23 -7z
m191 7 c0 -8 -3 -13 -5 -10 -3 3 -12 -1 -21 -7 -10 -8 -9 -4 3 10 23 26 23 26
23 7z m-900 -19 c18 -21 18 -21 -3 -3 -11 9 -23 14 -26 11 -3 -3 -8 -1 -12 4
-11 18 25 8 41 -12z m69 -4 c-17 -16 -18 -16 -5 5 7 12 15 20 18 17 3 -2 -3
-12 -13 -22z m533 25 c-2 -1 -13 -9 -24 -17 -19 -14 -19 -14 -6 3 7 9 18 17
24 17 6 0 8 -1 6 -3z m387 -4 c-2 -3 -6 -3 -9 -1 -3 2 -15 -6 -28 -17 l-24
-20 18 21 c9 11 24 21 32 21 8 0 13 -2 11 -4z m135 -6 c-6 -8 -9 -16 -6 -19 3
-2 -2 -5 -10 -5 -13 0 -13 3 2 19 19 21 31 25 14 5z m-890 -24 c13 -16 12 -17
-3 -4 -17 13 -22 21 -14 21 2 0 10 -8 17 -17z m252 5 c-4 -7 -8 -16 -8 -20 0
-3 -4 -10 -9 -15 -6 -5 -6 -2 -1 6 6 10 4 13 -7 9 -8 -4 -15 -1 -15 7 0 7 6
11 13 8 6 -2 15 0 19 6 3 6 8 11 11 11 3 0 2 -6 -3 -12z m118 -1 c-6 -8 -9
-16 -6 -19 3 -3 -3 -11 -12 -19 -16 -13 -17 -12 -4 4 7 9 10 17 6 17 -4 0 -2
7 5 15 7 8 15 15 17 15 3 0 0 -6 -6 -13z m154 -15 c-3 -3 1 -12 8 -21 11 -14
10 -14 -6 -2 -9 8 -15 16 -12 19 3 3 -1 12 -8 21 -11 14 -10 14 6 2 9 -8 15
-16 12 -19z m95 24 c0 -2 -8 -10 -17 -17 -16 -13 -17 -12 -4 4 13 16 21 21 21
13z m314 -4 c2 -4 -4 -8 -14 -8 -10 0 -16 4 -14 8 3 4 9 8 14 8 5 0 11 -4 14
-8z m-1188 -28 c1 -9 0 -13 -4 -10 -3 4 -7 14 -8 22 -1 9 0 13 4 10 3 -4 7
-14 8 -22z m124 22 c0 -2 -8 -10 -17 -17 -16 -13 -17 -12 -4 4 13 16 21 21 21
13z m295 -34 c-3 -3 3 -15 12 -26 18 -21 18 -21 -5 -2 -12 11 -20 21 -17 24 3
3 -3 15 -12 26 -18 21 -18 21 5 2 12 -11 20 -21 17 -24z m141 23 c-1 -8 -5
-17 -8 -21 -5 -4 -4 16 1 34 3 9 9 -1 7 -13z m160 -11 c1 -9 0 -13 -4 -10 -3
4 -7 14 -8 22 -1 9 0 13 4 10 3 -4 7 -14 8 -22z m284 22 c0 -2 -8 -10 -17 -17
-16 -13 -17 -12 -4 4 13 16 21 21 21 13z m-1060 -18 c0 -6 -3 -8 -7 -5 -3 4
-13 1 -22 -6 -14 -11 -14 -10 -2 6 15 20 31 22 31 5z m276 -38 c-1 -27 -4 -50
-7 -50 -4 0 -5 19 -4 43 4 54 4 57 8 57 2 0 3 -22 3 -50z m55 27 c-10 -9 -11
-8 -5 6 3 10 9 15 12 12 3 -3 0 -11 -7 -18z m563 7 c3 -8 2 -12 -4 -9 -6 3
-10 10 -10 16 0 14 7 11 14 -7z m66 -9 c14 -19 14 -19 -2 -6 -10 7 -18 18 -18
24 0 6 1 8 3 6 1 -2 9 -13 17 -24z m-939 -8 c-10 -9 -11 -8 -5 6 3 10 9 15 12
12 3 -3 0 -11 -7 -18z m-91 10 c0 -2 -10 -12 -22 -23 l-23 -19 19 23 c18 21
26 27 26 19z m307 -15 c-17 -18 -51 -27 -41 -10 3 5 9 6 14 3 4 -3 13 2 20 10
7 8 15 15 18 15 3 0 -2 -8 -11 -18z m209 6 c3 -4 -1 -5 -10 -4 -8 1 -18 5 -22
8 -3 4 1 5 10 4 8 -1 18 -5 22 -8z m65 -5 c13 -16 12 -17 -3 -4 -17 13 -22 21
-14 21 2 0 10 -8 17 -17z m569 13 c0 -2 -7 -7 -16 -10 -8 -3 -12 -2 -9 4 6 10
25 14 25 6z m37 -13 c0 -9 -4 -10 -14 -2 -7 6 -13 12 -13 14 0 1 6 2 13 2 8 0
14 -6 14 -14z m43 1 c-6 -6 -8 -14 -5 -17 3 -4 2 -5 -2 -2 -3 3 -13 -1 -22 -8
-14 -10 -14 -10 -3 5 8 9 11 21 9 25 -3 5 3 9 13 9 13 0 16 -4 10 -12z m40 1
c-5 -7 -8 -14 -5 -17 3 -2 -2 -5 -10 -5 -10 0 -12 4 -5 12 5 7 8 14 5 17 -3 2
2 5 10 5 10 0 12 -4 5 -12z m-1200 2 c0 -2 -8 -11 -18 -20 -15 -14 -19 -15
-19 -2 0 8 4 12 8 9 4 -2 10 0 14 6 6 10 15 14 15 7z m116 -9 c5 4 6 3 2 -2
-4 -5 -3 -14 2 -21 7 -8 5 -12 -5 -12 -8 0 -13 3 -10 5 3 3 -3 15 -12 26 -14
15 -14 18 -2 8 9 -6 20 -8 25 -4z m461 -3 c0 -8 -3 -13 -5 -10 -3 3 -12 -1
-21 -7 -10 -8 -9 -4 3 10 23 26 23 26 23 7z m63 12 c0 -2 -8 -11 -18 -20 -15
-14 -19 -15 -19 -2 0 8 4 12 8 9 4 -2 10 0 14 6 6 10 15 14 15 7z m50 -12 c-7
-8 -17 -15 -23 -15 -6 0 -2 7 9 15 25 19 30 19 14 0z m61 -3 c-7 -2 -18 1 -23
6 -8 8 -4 9 13 5 13 -4 18 -8 10 -11z m83 -11 c-2 -3 -12 3 -22 13 -16 17 -16
18 5 5 12 -7 20 -15 17 -18z m112 7 c12 -14 13 -18 3 -10 -9 6 -18 10 -21 7
-2 -3 -5 2 -5 10 0 19 0 19 23 -7z m-873 -6 c15 -16 15 -19 2 -19 -8 0 -13 3
-10 5 3 3 0 11 -6 19 -17 20 -5 16 14 -5z m76 4 c9 -11 9 -16 -1 -22 -7 -4
-10 -4 -6 1 4 4 3 14 -3 22 -6 7 -9 13 -6 13 2 0 10 -6 16 -14z m197 7 c-2 -3
-6 -3 -9 -1 -3 2 -15 -6 -28 -17 l-24 -20 18 21 c9 11 24 21 32 21 8 0 13 -2
11 -4z m65 -10 c13 -17 13 -17 -6 -3 -11 8 -22 16 -24 17 -2 2 0 3 6 3 6 0 17
-8 24 -17z m382 -1 c15 -16 15 -19 2 -19 -8 0 -13 3 -10 5 3 3 0 11 -6 19 -17
20 -5 16 14 -5z m298 1 c13 -16 12 -17 -3 -4 -17 13 -22 21 -14 21 2 0 10 -8
17 -17z m-374 -6 c0 -8 -6 -14 -14 -14 -9 0 -10 4 -2 14 6 7 12 13 14 13 1 0
2 -6 2 -13z m-716 -10 c-6 -8 -9 -17 -6 -20 3 -4 2 -5 -2 -2 -3 3 -11 0 -18
-5 -8 -7 -12 -5 -12 5 0 8 4 12 8 10 3 -3 12 2 19 10 7 8 15 15 17 15 3 0 0
-6 -6 -13z m44 3 c3 -6 -1 -7 -9 -4 -18 7 -21 14 -7 14 6 0 13 -4 16 -10z
m719 2 c2 -4 -4 -8 -14 -8 -10 0 -16 4 -14 8 3 4 9 8 14 8 5 0 11 -4 14 -8z
m242 -4 c3 -4 -1 -5 -10 -4 -8 1 -18 5 -22 8 -3 4 1 5 10 4 8 -1 18 -5 22 -8z
m-670 -13 c-1 -8 -5 -17 -8 -21 -5 -4 -4 16 1 34 3 9 9 -1 7 -13z m241 0 c0
-8 -3 -13 -5 -10 -3 3 -15 -3 -26 -12 -15 -14 -18 -14 -8 -2 6 9 8 20 4 24 -4
5 -2 5 5 1 6 -3 14 -2 18 4 9 14 12 13 12 -5z m279 0 c-1 -8 -5 -17 -8 -21 -5
-4 -4 16 1 34 3 9 9 -1 7 -13z m78 -15 c-6 -6 -10 -3 -10 10 0 13 4 16 10 10
7 -7 7 -13 0 -20z m239 15 c-3 -9 -8 -14 -10 -11 -3 3 -2 9 2 15 9 16 15 13 8
-4z m-516 -10 c0 -8 -4 -12 -9 -9 -5 3 -6 10 -3 15 9 13 12 11 12 -6z m477 -1
c3 -8 2 -12 -4 -9 -6 3 -10 10 -10 16 0 14 7 11 14 -7z m-739 -12 c-3 -3 0
-11 6 -19 17 -20 5 -16 -14 5 -15 16 -15 19 -2 19 8 0 13 -3 10 -5z m40 0 c-3
-3 3 -15 12 -26 14 -15 14 -18 2 -8 -9 6 -20 8 -25 4 -5 -4 -6 -3 -2 2 4 5 3
14 -2 21 -7 8 -5 12 5 12 8 0 13 -3 10 -5z m40 0 c-3 -3 0 -11 6 -19 17 -20 5
-16 -14 5 -15 16 -15 19 -2 19 8 0 13 -3 10 -5z m40 -10 c-3 -3 -11 0 -18 7
-9 10 -8 11 6 5 10 -3 15 -9 12 -12z m137 -7 c3 3 13 -5 24 -17 19 -23 19 -23
-2 -5 -11 9 -23 15 -26 12 -3 -3 -13 5 -24 17 -19 23 -19 23 2 5 11 -9 23 -15
26 -12z m225 7 c-17 -18 -51 -27 -41 -10 3 5 9 6 14 3 4 -3 13 2 20 10 7 8 15
15 18 15 3 0 -2 -8 -11 -18z m128 8 c-3 -5 -12 -10 -18 -10 -7 0 -6 4 3 10 19
12 23 12 15 0z m45 5 c0 -1 -10 -10 -22 -21 -14 -12 -18 -13 -10 -3 6 9 10 18
7 21 -3 2 2 5 10 5 8 0 15 -1 15 -2z m35 -5 c3 -6 -1 -7 -9 -4 -18 7 -21 14
-7 14 6 0 13 -4 16 -10z m-1085 -3 c0 -2 -8 -11 -18 -20 -15 -14 -19 -15 -19
-2 0 8 4 12 8 9 4 -2 10 0 14 6 6 10 15 14 15 7z m75 -35 c-3 -3 3 -15 12 -26
18 -21 18 -21 -5 -2 -12 11 -20 21 -17 24 3 3 -3 15 -12 26 -18 21 -18 21 5 2
12 -11 20 -21 17 -24z m70 18 c10 -11 16 -20 13 -20 -3 0 -13 9 -23 20 -10 11
-16 20 -13 20 3 0 13 -9 23 -20z m432 7 c0 -8 -6 -14 -14 -14 -9 0 -10 4 -2
14 6 7 12 13 14 13 1 0 2 -6 2 -13z m151 4 c16 12 16 12 0 -6 -18 -19 -18 -19
-35 0 -17 18 -17 18 0 6 14 -11 20 -11 35 0z m69 -36 c0 -8 -4 -12 -9 -9 -5 4
-7 9 -4 12 3 3 -2 15 -11 26 -18 21 -18 21 3 3 11 -9 21 -24 21 -32z m172 42
c-2 -1 -13 -10 -25 -20 -17 -14 -21 -14 -21 -2 0 8 4 12 8 9 4 -2 10 0 14 6 3
5 11 10 17 10 6 0 9 -1 7 -3z m167 -9 c5 4 5 3 1 -2 -12 -15 -34 -15 -34 0 0
9 4 11 12 4 7 -5 16 -6 21 -2z m-1219 -22 c18 -21 18 -21 -3 -3 -11 9 -23 14
-26 11 -3 -3 -8 -1 -12 4 -11 18 25 8 41 -12z m323 -1 c14 -19 14 -19 -2 -6
-10 7 -18 18 -18 24 0 6 1 8 3 6 1 -2 9 -13 17 -24z m71 8 c12 -16 12 -17 -2
-6 -9 7 -20 9 -24 5 -5 -4 -5 -1 -1 6 9 16 11 15 27 -5z m60 0 c13 -17 13 -17
-6 -3 -11 8 -22 16 -24 17 -2 2 0 3 6 3 6 0 17 -8 24 -17z m-330 -10 c13 -16
12 -17 -3 -4 -17 13 -22 21 -14 21 2 0 10 -8 17 -17z m79 1 c0 -8 -19 -13 -24
-6 -3 5 1 9 9 9 8 0 15 -2 15 -3z m231 -11 c13 -16 12 -17 -3 -4 -17 13 -22
21 -14 21 2 0 10 -8 17 -17z m217 -3 c9 7 9 7 2 -2 -16 -19 -36 -17 -36 4 0
17 2 17 11 4 8 -10 16 -12 23 -6z m196 12 c2 -4 -4 -8 -14 -8 -10 0 -16 4 -14
8 3 4 9 8 14 8 5 0 11 -4 14 -8z m206 5 c0 -2 -10 -13 -23 -25 -18 -17 -24
-19 -24 -8 0 8 4 13 8 11 3 -3 12 2 19 10 12 14 20 19 20 12z m105 -15 c-3 -3
-11 0 -18 7 -9 10 -8 11 6 5 10 -3 15 -9 12 -12z m-1181 -22 c-6 -6 -10 -3
-10 10 0 13 4 16 10 10 7 -7 7 -13 0 -20z m63 1 c0 -10 -7 -18 -14 -18 -9 0
-10 4 -2 13 6 7 7 19 3 25 -4 7 -3 9 4 5 6 -3 10 -15 9 -25z m61 4 c-3 -3 -9
2 -12 12 -6 14 -5 15 5 6 7 -7 10 -15 7 -18z m122 21 c0 -2 -8 -10 -17 -17
-16 -13 -17 -12 -4 4 13 16 21 21 21 13z m154 -26 c-6 -6 -10 -3 -10 10 0 13
4 16 10 10 7 -7 7 -13 0 -20z m142 18 c5 4 6 3 2 -2 -4 -5 -4 -14 2 -20 6 -8
3 -12 -10 -12 -10 0 -16 4 -13 9 2 4 -1 16 -9 25 -11 15 -11 15 3 5 9 -7 20
-9 25 -5z m60 -14 c1 -9 0 -13 -4 -10 -3 4 -7 14 -8 22 -1 9 0 13 4 10 3 -4 7
-14 8 -22z m162 1 c-3 -3 -9 2 -12 12 -6 14 -5 15 5 6 7 -7 10 -15 7 -18z
m195 10 c-3 -9 -8 -14 -10 -11 -3 3 -2 9 2 15 9 16 15 13 8 -4z m-1014 2 c-2
-1 -13 -9 -24 -17 -19 -14 -19 -14 -6 3 7 9 18 17 24 17 6 0 8 -1 6 -3z m307
-25 c-17 -16 -18 -16 -5 5 7 12 15 20 18 17 3 -2 -3 -12 -13 -22z m225 5 c-10
-9 -11 -8 -5 6 3 10 9 15 12 12 3 -3 0 -11 -7 -18z m226 5 c0 -10 -6 -19 -13
-19 -9 0 -9 5 -1 19 7 10 13 18 14 18 1 0 1 -8 0 -18z m454 1 c13 -16 12 -17
-3 -4 -17 13 -22 21 -14 21 2 0 10 -8 17 -17z m-1051 3 c0 -2 -8 -10 -17 -17
-16 -13 -17 -12 -4 4 13 16 21 21 21 13z m640 0 c0 -2 -8 -10 -17 -17 -16 -13
-17 -12 -4 4 13 16 21 21 21 13z m241 -13 c13 -16 12 -17 -3 -4 -17 13 -22 21
-14 21 2 0 10 -8 17 -17z m-1044 -11 c-17 -18 -51 -27 -41 -10 3 5 9 6 14 3 4
-3 13 2 20 10 7 8 15 15 18 15 3 0 -2 -8 -11 -18z m481 -2 c-7 -10 -14 -17
-17 -15 -4 4 18 35 25 35 2 0 -1 -9 -8 -20z m638 1 c-17 -18 -38 -22 -52 -8
-4 3 3 5 14 2 11 -2 26 3 33 11 6 8 14 14 17 14 3 0 -3 -9 -12 -19z m75 2 c13
-16 12 -17 -3 -4 -10 7 -18 15 -18 17 0 8 8 3 21 -13z m-1271 4 c0 -2 -10 -12
-22 -23 l-23 -19 19 23 c18 21 26 27 26 19z m160 0 c0 -2 -8 -11 -18 -20 -15
-14 -19 -15 -19 -2 0 8 4 12 8 9 4 -2 10 0 14 6 6 10 15 14 15 7z m96 -16 c0
-16 -3 -17 -14 -9 -12 10 -7 19 13 28 1 0 1 -9 1 -19z m161 4 c0 -8 -3 -13 -5
-10 -3 3 -12 -1 -21 -7 -10 -8 -9 -4 3 10 23 26 23 26 23 7z m223 12 c0 -2 -8
-11 -18 -20 -15 -14 -19 -15 -19 -2 0 8 4 12 8 9 4 -2 10 0 14 6 6 10 15 14
15 7z m257 -12 c0 -8 -3 -13 -5 -10 -3 3 -12 -1 -21 -7 -10 -8 -9 -4 3 10 23
26 23 26 23 7z m209 -7 c12 -14 13 -18 3 -10 -9 6 -18 10 -21 7 -2 -3 -5 2 -5
10 0 19 0 19 23 -7z m-800 -16 c-17 -16 -18 -16 -5 5 7 12 15 20 18 17 3 -2
-3 -12 -13 -22z m200 21 c-2 -3 -6 -3 -9 -1 -3 2 -15 -6 -28 -17 l-24 -20 18
21 c9 11 24 21 32 21 8 0 13 -2 11 -4z m491 1 c-3 -3 -12 -6 -20 -8 -8 -1 -23
-8 -33 -16 -18 -14 -18 -14 -2 6 9 11 27 20 39 21 12 1 19 0 16 -3z m-839 -34
c-7 -10 -14 -17 -17 -15 -4 4 18 35 25 35 2 0 -1 -9 -8 -20z m94 -4 c3 3 8 1
12 -4 11 -18 -25 -8 -41 12 -18 21 -18 21 3 3 11 -9 23 -14 26 -11z m386 4
c-7 -10 -14 -17 -17 -15 -4 4 18 35 25 35 2 0 -1 -9 -8 -20z m642 14 c0 -8
-19 -13 -24 -6 -3 5 1 9 9 9 8 0 15 -2 15 -3z m-953 -22 c-10 -10 -15 -21 -12
-24 3 -3 -5 -13 -17 -24 l-23 -19 19 23 c11 12 15 22 11 22 -4 0 0 9 10 20 10
11 20 20 23 20 3 0 -2 -8 -11 -18z m86 3 c-3 -9 -8 -14 -10 -11 -3 3 -2 9 2
15 9 16 15 13 8 -4z m142 -23 c-3 -3 3 -15 12 -26 18 -21 18 -21 -5 -2 -12 11
-20 21 -17 24 3 3 -3 15 -12 26 -18 21 -18 21 5 2 12 -11 20 -21 17 -24z m338
23 c-3 -9 -8 -14 -10 -11 -3 3 -2 9 2 15 9 16 15 13 8 -4z m87 11 c0 -2 -8
-10 -17 -17 -16 -13 -17 -12 -4 4 13 16 21 21 21 13z m118 -21 c-3 -3 -9 2
-12 12 -6 14 -5 15 5 6 7 -7 10 -15 7 -18z m-1161 -2 c0 -9 -4 -10 -14 -2 -7
6 -13 12 -13 14 0 1 6 2 13 2 8 0 14 -6 14 -14z m274 0 c13 -16 12 -17 -3 -4
-15 11 -21 11 -35 0 -16 -13 -17 -12 -4 4 7 9 17 17 21 17 4 0 14 -8 21 -17z
m459 13 c0 -2 -8 -10 -17 -17 -16 -13 -17 -12 -4 4 13 16 21 21 21 13z m385
-5 c3 -5 2 -12 -3 -15 -5 -3 -9 1 -9 9 0 17 3 19 12 6z m189 1 c3 -5 -1 -9 -9
-9 -8 0 -15 4 -15 9 0 4 4 8 9 8 6 0 12 -4 15 -8z m-884 -6 c0 -2 -8 -10 -17
-17 -16 -13 -17 -12 -4 4 13 16 21 21 21 13z m161 -13 c13 -16 12 -17 -3 -4
-17 13 -22 21 -14 21 2 0 10 -8 17 -17z m196 2 c0 -8 -10 -23 -21 -32 -21 -18
-21 -18 -2 5 11 12 16 22 12 22 -4 0 -4 5 -1 10 9 14 12 13 12 -5z m75 -2 c-1
-4 7 -17 16 -28 17 -20 17 -20 -4 -2 -11 9 -21 24 -21 32 0 8 2 13 5 11 2 -2
4 -8 4 -13z m-797 -1 c-3 -3 0 -11 6 -19 17 -20 5 -16 -14 5 -15 16 -15 19 -2
19 8 0 13 -3 10 -5z m45 -6 c-7 -7 -13 -7 -20 0 -6 6 -3 10 10 10 13 0 16 -4
10 -10z m86 2 c3 -4 -1 -5 -10 -4 -8 1 -18 5 -22 8 -3 4 1 5 10 4 8 -1 18 -5
22 -8z m480 0 c3 -4 -1 -5 -10 -4 -8 1 -18 5 -22 8 -3 4 1 5 10 4 8 -1 18 -5
22 -8z m84 8 c0 -2 -8 -10 -17 -17 -16 -13 -17 -12 -4 4 13 16 21 21 21 13z
m74 -4 c2 -4 -4 -8 -14 -8 -10 0 -16 4 -14 8 3 4 9 8 14 8 5 0 11 -4 14 -8z
m-599 -22 c10 -11 16 -20 13 -20 -3 0 -13 9 -23 20 -10 11 -16 20 -13 20 3 0
13 -9 23 -20z m96 3 c13 -16 12 -17 -3 -4 -17 13 -22 21 -14 21 2 0 10 -8 17
-17z m119 13 c0 -2 -8 -10 -17 -17 -16 -13 -17 -12 -4 4 13 16 21 21 21 13z
m56 -8 c5 4 6 3 2 -2 -4 -5 -3 -14 2 -21 7 -8 5 -12 -5 -12 -8 0 -13 3 -10 5
3 3 -3 15 -12 26 -14 15 -14 18 -2 8 9 -6 20 -8 25 -4z m65 -5 c13 -16 12 -17
-3 -4 -17 13 -22 21 -14 21 2 0 10 -8 17 -17z m349 2 c-6 -8 -8 -20 -4 -27 5
-10 4 -10 -6 -1 -11 10 -11 15 0 28 7 8 15 15 17 15 3 0 0 -7 -7 -15z m66 3
c5 4 6 3 2 -2 -4 -5 -3 -14 2 -21 7 -8 5 -12 -5 -12 -8 0 -13 3 -10 5 3 3 -3
15 -12 26 -14 15 -14 18 -2 8 9 -6 20 -8 25 -4z m92 3 c16 12 16 12 0 -6 -18
-19 -18 -19 -35 0 -17 18 -17 18 0 6 14 -11 20 -11 35 0z m82 -6 c-6 -8 -9
-18 -7 -22 3 -5 -3 -9 -13 -9 -13 0 -16 4 -10 12 6 6 6 15 2 19 -4 5 -2 5 5 1
6 -3 14 -2 18 4 3 5 9 10 12 10 3 0 0 -7 -7 -15z m51 -2 c13 -16 12 -17 -3 -4
-17 13 -22 21 -14 21 2 0 10 -8 17 -17z m-1235 -21 c-17 -16 -18 -16 -5 5 7
12 15 20 18 17 3 -2 -3 -12 -13 -22z m185 11 c13 -17 13 -17 -6 -3 -11 8 -22
16 -24 17 -2 2 0 3 6 3 6 0 17 -8 24 -17z m142 -1 c15 -16 15 -19 2 -19 -8 0
-13 3 -10 5 3 3 0 11 -6 19 -17 20 -5 16 14 -5z m240 0 c15 -16 15 -19 2 -19
-8 0 -13 3 -10 5 3 3 0 11 -6 19 -17 20 -5 16 14 -5z m168 5 c-6 -8 -9 -16 -6
-19 3 -2 -2 -5 -10 -5 -13 0 -13 3 2 19 19 21 31 25 14 5z m312 -5 c15 -16 15
-19 2 -19 -8 0 -13 3 -10 5 3 3 0 11 -6 19 -17 20 -5 16 14 -5z m88 5 c-6 -8
-9 -16 -6 -19 3 -2 -2 -5 -10 -5 -13 0 -13 3 2 19 19 21 31 25 14 5z m149 9
c0 -2 -8 -10 -17 -17 -16 -13 -17 -12 -4 4 13 16 21 21 21 13z m-792 -19 c8
-10 6 -13 -7 -13 -11 0 -17 6 -14 13 3 7 6 13 8 13 1 0 7 -6 13 -13z m481 0
c8 -10 7 -14 -2 -14 -8 0 -14 6 -14 14 0 7 1 13 2 13 2 0 8 -6 14 -13z m240 0
c8 -10 7 -14 -2 -14 -8 0 -14 6 -14 14 0 7 1 13 2 13 2 0 8 -6 14 -13z m-1183
-27 c0 -12 -4 -16 -9 -11 -5 5 -6 14 -3 20 10 15 12 14 12 -9z m167 5 c42 0
77 -2 77 -5 0 -3 -40 -6 -88 -5 -64 0 -89 3 -89 12 0 7 5 9 11 5 6 -5 46 -8
89 -7z m254 0 c0 -8 -4 -15 -9 -15 -10 0 -11 14 -1 23 9 10 10 9 10 -8z m210
0 c23 -1 45 -4 48 -7 3 -3 -17 -4 -45 -4 -27 1 -55 8 -62 15 -11 11 -10 12 2
5 8 -5 34 -9 57 -9z m265 -14 c11 -11 10 -12 -2 -5 -8 5 -30 9 -47 9 -18 1
-35 4 -38 7 -3 3 12 5 34 4 23 -1 47 -8 53 -15z m-921 -18 c13 -16 12 -17 -3
-4 -17 13 -22 21 -14 21 2 0 10 -8 17 -17z m524 9 c-3 -3 3 -15 12 -26 14 -15
14 -18 2 -8 -9 6 -20 8 -25 4 -5 -4 -6 -3 -2 2 4 5 3 14 -2 21 -7 8 -5 12 5
12 8 0 13 -3 10 -5z m40 0 c-3 -3 0 -11 6 -19 17 -20 5 -16 -14 5 -15 16 -15
19 -2 19 8 0 13 -3 10 -5z m255 3 c0 -1 -10 -10 -22 -21 -14 -12 -18 -13 -10
-3 6 9 10 18 7 21 -3 2 2 5 10 5 8 0 15 -1 15 -2z m145 -3 c-3 -3 0 -11 6 -19
17 -20 5 -16 -14 5 -15 16 -15 19 -2 19 8 0 13 -3 10 -5z m40 0 c-3 -3 3 -15
12 -26 14 -15 14 -18 2 -8 -9 6 -20 8 -25 4 -5 -4 -6 -3 -2 2 4 5 3 14 -2 21
-7 8 -5 12 5 12 8 0 13 -3 10 -5z m47 1 c-6 -3 -9 -10 -5 -16 4 -7 -1 -6 -10
2 -21 17 -21 17 6 18 12 0 16 -1 9 -4z m75 -10 c0 -9 -4 -10 -14 -2 -7 6 -13
12 -13 14 0 1 6 2 13 2 8 0 14 -6 14 -14z m43 1 c-6 -6 -8 -14 -5 -17 3 -4 2
-5 -2 -2 -3 3 -13 -1 -22 -8 -14 -10 -14 -10 -3 5 8 9 11 21 9 25 -3 5 3 9 13
9 13 0 16 -4 10 -12z m40 1 c-5 -7 -8 -14 -5 -17 3 -2 -2 -5 -10 -5 -10 0 -12
4 -5 12 5 7 8 14 5 17 -3 2 2 5 10 5 10 0 12 -4 5 -12z m-1092 -18 c17 -18 19
-24 7 -24 -8 0 -13 3 -10 5 3 3 -2 14 -12 24 -24 27 -10 22 15 -5z m49 -22 c0
-8 -4 -12 -9 -9 -5 4 -7 9 -4 12 3 3 -2 15 -11 26 -18 21 -18 21 3 3 11 -9 21
-24 21 -32z m77 16 c-2 -3 -12 3 -22 13 -16 17 -16 18 5 5 12 -7 20 -15 17
-18z m71 9 c10 -11 16 -20 13 -20 -3 0 -13 9 -23 20 -10 11 -16 20 -13 20 3 0
13 -9 23 -20z m89 -9 c-2 -3 -12 3 -22 13 -16 17 -16 18 5 5 12 -7 20 -15 17
-18z m243 -16 c0 -8 -4 -12 -9 -9 -5 4 -7 9 -4 12 3 3 -2 15 -11 26 -18 21
-18 21 3 3 11 -9 21 -24 21 -32z m93 30 c-7 -8 -17 -15 -23 -15 -6 0 -2 7 9
15 25 19 30 19 14 0z m145 -23 c-3 -3 3 -15 12 -26 18 -21 18 -21 -5 -2 -12
11 -20 21 -17 24 3 3 -3 15 -12 26 -18 21 -18 21 5 2 12 -11 20 -21 17 -24z
m56 11 c13 -16 12 -17 -3 -4 -17 13 -22 21 -14 21 2 0 10 -8 17 -17z m160 0
c13 -16 12 -17 -3 -4 -15 11 -21 11 -35 0 -16 -13 -17 -12 -4 4 7 9 17 17 21
17 4 0 14 -8 21 -17z m-1012 -6 c8 -10 7 -14 -2 -14 -8 0 -14 6 -14 14 0 7 1
13 2 13 2 0 8 -6 14 -13z m522 -4 c13 -16 12 -17 -3 -4 -17 13 -22 21 -14 21
2 0 10 -8 17 -17z m159 13 c0 -2 -8 -10 -17 -17 -16 -13 -17 -12 -4 4 13 16
21 21 21 13z m-554 -18 c3 -4 -1 -5 -10 -4 -8 1 -18 5 -22 8 -3 4 1 5 10 4 8
-1 18 -5 22 -8z m74 8 c0 -2 -7 -7 -16 -10 -8 -3 -12 -2 -9 4 6 10 25 14 25 6z
m86 -8 c3 -4 -1 -5 -10 -4 -8 1 -18 5 -22 8 -3 4 1 5 10 4 8 -1 18 -5 22 -8z
m79 3 c-9 -8 -36 -10 -30 -2 2 4 11 8 20 8 8 0 13 -3 10 -6z m241 -3 c3 -4 -1
-5 -10 -4 -8 1 -18 5 -22 8 -3 4 1 5 10 4 8 -1 18 -5 22 -8z m160 0 c3 -4 -1
-5 -10 -4 -8 1 -18 5 -22 8 -3 4 1 5 10 4 8 -1 18 -5 22 -8z m65 -5 c13 -16
12 -17 -3 -4 -10 7 -18 15 -18 17 0 8 8 3 21 -13z m-611 3 c0 -2 -8 -10 -17
-17 -16 -13 -17 -12 -4 4 13 16 21 21 21 13z m281 -13 c13 -16 12 -17 -3 -4
-17 13 -22 21 -14 21 2 0 10 -8 17 -17z m199 13 c0 -2 -8 -10 -17 -17 -16 -13
-17 -12 -4 4 13 16 21 21 21 13z m393 -11 c-3 -9 -8 -14 -10 -11 -3 3 -2 9 2
15 9 16 15 13 8 -4z m-867 -23 c-17 -16 -18 -16 -5 5 7 12 15 20 18 17 3 -2
-3 -12 -13 -22z m164 24 c0 -2 -8 -10 -17 -17 -16 -13 -17 -12 -4 4 13 16 21
21 21 13z m61 -19 c-10 -9 -11 -8 -5 6 3 10 9 15 12 12 3 -3 0 -11 -7 -18z
m255 -5 c-17 -16 -18 -16 -5 5 7 12 15 20 18 17 3 -2 -3 -12 -13 -22z m145 5
c-10 -9 -11 -8 -5 6 3 10 9 15 12 12 3 -3 0 -11 -7 -18z m80 0 c-10 -9 -11 -8
-5 6 3 10 9 15 12 12 3 -3 0 -11 -7 -18z m123 7 c3 -8 2 -12 -4 -9 -6 3 -10
10 -10 16 0 14 7 11 14 -7z m-937 -9 c0 -8 -4 -12 -9 -9 -5 3 -6 10 -3 15 9
13 12 11 12 -6z m279 -13 c-9 -11 -28 -18 -44 -17 -15 1 -36 -5 -47 -14 -20
-16 -20 -16 -2 5 12 15 27 21 47 19 16 -1 35 4 41 11 6 8 14 14 17 14 3 0 -2
-8 -12 -18z m481 0 c-17 -18 -51 -27 -41 -10 3 5 9 6 14 3 4 -3 13 2 20 10 7
8 15 15 18 15 3 0 -2 -8 -11 -18z m127 10 c2 -4 -4 -8 -14 -8 -10 0 -16 4 -14
8 3 4 9 8 14 8 5 0 11 -4 14 -8z m-747 -15 c0 -8 -6 -14 -14 -14 -9 0 -10 4
-2 14 6 7 12 13 14 13 1 0 2 -6 2 -13z m223 10 c0 -2 -8 -11 -18 -20 -15 -14
-19 -15 -19 -2 0 8 4 12 8 9 4 -2 10 0 14 6 6 10 15 14 15 7z m35 -7 c3 -6 -1
-7 -9 -4 -18 7 -21 14 -7 14 6 0 13 -4 16 -10z m62 -5 c0 -8 -3 -13 -5 -10 -3
3 -12 -1 -21 -7 -10 -8 -9 -4 3 10 23 26 23 26 23 7z m93 0 c-7 -9 -15 -13
-18 -10 -3 3 -15 -3 -26 -12 -21 -18 -21 -18 -2 4 10 13 22 20 27 18 4 -3 10
-1 14 5 3 5 9 10 12 10 3 0 0 -7 -7 -15z m67 0 c0 -8 -3 -13 -5 -10 -3 3 -12
-1 -21 -7 -10 -8 -9 -4 3 10 23 26 23 26 23 7z m223 12 c0 -2 -8 -11 -18 -20
-15 -14 -19 -15 -19 -2 0 8 4 12 8 9 4 -2 10 0 14 6 6 10 15 14 15 7z m96 -9
c5 4 5 3 1 -2 -12 -15 -34 -15 -34 0 0 9 4 11 12 4 7 -5 16 -6 21 -2z m-270
-26 c-17 -16 -18 -16 -5 5 7 12 15 20 18 17 3 -2 -3 -12 -13 -22z m-305 -5
c-6 -8 -9 -16 -6 -19 3 -3 -3 -11 -12 -19 -16 -13 -17 -12 -4 4 7 9 10 17 6
17 -4 0 -2 7 5 15 7 8 15 15 17 15 3 0 0 -6 -6 -13z m49 8 c0 -1 -10 -10 -22
-21 -14 -12 -18 -13 -10 -3 6 9 10 18 7 21 -3 2 2 5 10 5 8 0 15 -1 15 -2z
m440 1 c0 -2 -8 -10 -17 -17 -16 -13 -17 -12 -4 4 13 16 21 21 21 13z m26 -22
c1 -9 0 -13 -3 -10 -4 3 -13 0 -22 -6 -12 -10 -12 -7 2 8 9 11 15 24 12 27 -3
4 -2 5 2 2 4 -3 8 -13 9 -21z m-343 1 c-3 -9 -8 -14 -10 -11 -3 3 -2 9 2 15 9
16 15 13 8 -4z m80 0 c-3 -9 -8 -14 -10 -11 -3 3 -2 9 2 15 9 16 15 13 8 -4z
m83 -5 c0 -12 -4 -16 -9 -11 -5 5 -6 14 -3 20 10 15 12 14 12 -9z m44 16 c0
-2 -8 -10 -17 -17 -16 -13 -17 -12 -4 4 13 16 21 21 21 13z m-416 -18 c-4 -5
-9 -7 -12 -4 -3 3 -12 0 -21 -7 -14 -10 -14 -10 -4 4 13 16 46 23 37 7z m116
-13 c14 -19 14 -19 -2 -6 -10 7 -18 18 -18 24 0 6 1 8 3 6 1 -2 9 -13 17 -24z
m131 8 c12 -16 12 -17 -2 -6 -9 7 -20 9 -24 5 -5 -4 -5 -1 -1 6 9 16 11 15 27
-5z m219 13 c0 -2 -8 -10 -17 -17 -16 -13 -17 -12 -4 4 13 16 21 21 21 13z
m-149 -23 c13 -16 12 -17 -3 -4 -10 7 -18 15 -18 17 0 8 8 3 21 -13z m169 3
c0 -2 -8 -10 -17 -17 -16 -13 -17 -12 -4 4 13 16 21 21 21 13z m-391 -19 c8
-10 7 -14 -2 -14 -8 0 -14 6 -14 14 0 7 1 13 2 13 2 0 8 -6 14 -13z m57 -5
c-3 -3 0 -12 6 -21 10 -13 10 -14 -2 -4 -16 15 -23 46 -8 37 5 -3 7 -9 4 -12z
m80 6 c5 4 6 3 2 -2 -4 -5 -3 -14 2 -21 7 -8 5 -12 -5 -12 -8 0 -13 3 -10 5 3
3 -3 15 -12 26 -14 15 -14 18 -2 8 9 -6 20 -8 25 -4z m78 -17 c-2 -3 -12 3
-22 13 -16 17 -16 18 5 5 12 -7 20 -15 17 -18z m-121 1 c15 -16 15 -19 2 -19
-8 0 -13 3 -10 5 3 3 0 11 -6 19 -17 20 -5 16 14 -5z m80 0 c15 -16 15 -19 2
-19 -8 0 -13 3 -10 5 3 3 0 11 -6 19 -17 20 -5 16 14 -5z m237 14 c0 -2 -8
-10 -17 -17 -16 -13 -17 -12 -4 4 13 16 21 21 21 13z m-174 -41 c-1 -8 -5 -17
-8 -21 -5 -4 -4 16 1 34 3 9 9 -1 7 -13z m100 3 c5 4 6 3 2 -2 -4 -5 -2 -16 4
-25 10 -12 7 -12 -8 2 -11 9 -23 15 -26 12 -2 -3 -5 2 -5 10 0 10 4 12 12 5 7
-5 16 -6 21 -2z m39 -17 c3 -5 2 -12 -3 -15 -5 -3 -9 1 -9 9 0 17 3 19 12 6z
m-105 -5 c0 -2 -8 -10 -17 -17 -16 -13 -17 -12 -4 4 13 16 21 21 21 13z m69
-33 c2 -1 -5 -1 -16 0 -11 0 -20 7 -20 14 0 10 4 10 16 1 9 -7 18 -13 20 -15z"/>
</g>
</svg>
